<svg id="Layer_1" enable-background="new 0 0 510 510" height="512" viewBox="0 0 510 510" width="512" xmlns="http://www.w3.org/2000/svg"><g id="XMLID_1_"><path id="XMLID_154_" d="m153.217 303.75c-12.224 12.223-26.684 26.683-39.233 39.233l16.683 36.35 36.351 16.684c12.132-12.132 26.728-26.728 39.232-39.233-10.451-7.049-17.25-31.101-17.25-31.101s-28.735-11.481-35.783-21.933z" fill="#ffdc75"/><path id="XMLID_533_" d="m315 0c-107.523 0-195 87.477-195 195 0 107.52 87.484 195 195 195l10-195z" fill="#4d4d8c"/><path id="XMLID_156_" d="m315 0v390c107.523 0 195-87.477 195-195s-87.477-195-195-195z" fill="#283366"/><path id="XMLID_532_" d="m150 195c0 90.981 74.019 165 165 165l10-165-10-165c-90.981 0-165 74.019-165 165z" fill="#fff5f5"/><path id="XMLID_157_" d="m315 30v330c90.981 0 165-74.019 165-165s-74.019-165-165-165z" fill="#e4e4ff"/><path id="XMLID_155_" d="m10.983 445.983c-14.644 14.645-14.644 38.389 0 53.033 14.644 14.644 38.389 14.644 53.033 0l103-103-53.033-53.033c-43.696 43.697-97.029 97.03-103 103z" fill="#b0866b"/><path id="XMLID_537_" d="m210 105v165h69.333c11.396 0 20.667 9.271 20.667 20.667v9.333h15l10-105.001-10-89.999c-22.731 0-83.127 0-105 0z" fill="#b9e68b"/><path id="XMLID_531_" d="m315 105v195h15v-9.333c0-11.396 9.272-20.667 20.667-20.667h69.333v-165c-21.898 0-82.478 0-105 0z" fill="#73ca7a"/></g></svg>