<svg id="Layer_1" enable-background="new 0 0 510 510" height="512" viewBox="0 0 510 510" width="512" xmlns="http://www.w3.org/2000/svg"><g id="XMLID_4417_"><path id="XMLID_4448_" d="m0 277.256v120h60l15-15 15 15h30c5.071-5.246 9.429-9.754 14.5-15 5.421 5.246 10.079 9.754 15.5 15h30l15-15 15 15h30c2.571-5.143 4.929-9.857 7.5-15 2.571 5.143 4.929 9.857 7.5 15 5.242-20.969 9.758-39.036 15-60.004-5.242-20.968-9.758-39.028-15-59.996-55.471 0-199.529 0-255 0z" fill="#ffdc75"/><path id="XMLID_4455_" d="m285 112.256c-10.492 0-19.508 0-30 0l-15 45 15 45h30l15-45z" fill="#fff5f5"/><path id="XMLID_4421_" d="m255 277.256v120l7.5-15 7.5 15h30l15-15 15 15h30l15-15 15 15h30l15-15 15 15h60c0-38.179 0-81.822 0-120-7.193 0-247.807 0-255 0z" fill="#ffc649"/><path id="XMLID_4586_" d="m45 202.248h30l15-45-15-45c-.189 0-31.261 0-30 0-24.852 0-45 20.146-45 45 0 24.853 20.146 45 45 45z" fill="#ff8659"/><path id="XMLID_4562_" d="m255 112.248h-180v90h180c0-20.994 0-69.012 0-90z" fill="#8e89fa"/><path id="XMLID_4457_" d="m285 202.248h105l15-45-15-45c-28.278 0-88.527 0-105 0z" fill="#716dd4"/><path id="XMLID_4451_" d="m390 112.256v90h45c9.074-5.445 65.866-39.52 75-45-9.074-5.445-65.866-39.52-75-45-14.981 0-30.019 0-45 0z" fill="#e4e4ff"/><path id="XMLID_4627_" d="m450 337.256c-10.492 0-19.508 0-30 0v60h30c0-7.26 0-52.694 0-60z" fill="#ffa951"/><path id="XMLID_4701_" d="m390 322.256c-10.492 0-19.508 0-30 0v75h30c0-20.195 0-63.236 0-75z" fill="#ffa951"/><path id="XMLID_4702_" d="m330 337.256c-10.492 0-19.508 0-30 0v60h30c0-7.26 0-52.694 0-60z" fill="#ffa951"/><path id="XMLID_4705_" d="m255 322.256c-5.246 0-9.754 0-15 0v75h15c0-10 0-64 0-75z" fill="#ffc649"/><path id="XMLID_4710_" d="m270 322.256c-5.246 0-9.754 0-15 0v75h15c0-20.195 0-63.236 0-75z" fill="#ffa951"/><g fill="#ffc649"><path id="XMLID_4714_" d="m180 337.256v60l30 .496v-60z"/><path id="XMLID_4716_" d="m120 322.256v75h30v-75z"/><path id="XMLID_4740_" d="m60 337.256h30v60h-30z"/></g></g></svg>