<svg id="Layer_1" enable-background="new 0 0 510 510" height="512" viewBox="0 0 510 510" width="512" xmlns="http://www.w3.org/2000/svg"><g id="XMLID_3495_"><path id="XMLID_3655_" d="m216.3 420.2c-28.4-90.9-28.4-239.5 0-330.5 4.4-14 9.1-25.3 13.8-34.3 9.1-17.3 18.3-25.4 24.9-25.4l11-15-11-15c-35.7 0-61.1 46.8-75.6 111.8-19.1 85.6-19.2 200.6 0 286.3 14.5 65 39.9 111.8 75.6 111.8l12-15-12-15c-6.6 0-15.8-8.1-24.9-25.5-4.7-8.8-9.4-20.2-13.8-34.2z" fill="#6dabfc"/><path id="XMLID_3653_" d="m330.6 111.8c-14.5-65-39.9-111.8-75.6-111.8v30c6.6 0 15.8 8.1 24.9 25.5 4.7 8.9 9.4 20.3 13.8 34.3 28.3 90.4 28.6 239 0 330.5-4.4 14-9.1 25.3-13.8 34.3-9.2 17.4-18.3 25.5-24.9 25.5v30c35.7 0 61.1-46.8 75.6-111.8 19.2-85.7 19.2-200.7 0-286.5z" fill="#5697f8"/><path id="XMLID_3652_" d="m55.5 279.9c-17.4-9.1-25.5-18.3-25.5-24.9s8.1-15.8 25.5-24.9c32-16.9 80-26.1 116.1-30.3 26.2-3.1 54.4-4.7 83.4-4.7l14-15-14-15c-50.2 0-100.6 4.8-143.2 14.4-65 14.4-111.8 39.8-111.8 75.5s46.8 61.1 111.8 75.6c42.6 9.5 93 14.4 143.2 14.4l12.5-15-12.5-15c-29 0-57.2-1.6-83.4-4.7-36.2-4.3-84.1-13.5-116.1-30.4z" fill="#ff8659"/><path id="XMLID_3648_" d="m510 255c0-35.7-46.8-61.1-111.8-75.6-42.6-9.5-93-14.4-143.2-14.4v30c52.5 0 114.7 5.5 165.2 21.3 14 4.4 25.3 9.1 34.3 13.8 17.4 9.2 25.5 18.3 25.5 24.9s-8.1 15.8-25.5 24.9c-8.9 4.7-20.3 9.4-34.3 13.8-50.5 15.8-112.7 21.3-165.2 21.3v30c50.2 0 100.6-4.8 143.2-14.4 65-14.5 111.8-39.9 111.8-75.6z" fill="#ff5c5c"/><path id="XMLID_3635_" d="m240 240v30h15l10-15-10-15c-5.2 0-9.8 0-15 0z" fill="#ffdc75"/><path id="XMLID_1_" d="m255 240v30h15c0-10.5 0-19.5 0-30-5.2 0-9.8 0-15 0z" fill="#ffc649"/><path id="XMLID_3629_" d="m131.6 413.7c-18.8 5.8-31 5.1-35.7.4s-5.4-16.9.4-35.7c10.7-34.6 38.1-75 60.6-103.5 28.7-36.4 63.8-72.3 98.1-101.6l11.5-26.3-11.5-12.5c-57.3 45.3-116.6 108.1-154.7 168.2-35.7 56.3-50.9 107.4-25.6 132.6 26.8 26.8 78.8 5.1 111.9-13.3 22-12.2 45.3-28.1 68.4-46.5l14-23-14-15.8c-14.5 12.4-28.9 23.7-43 33.7-23.1 16.3-53.5 34.9-80.4 43.3z" fill="#b9e68b"/><path id="XMLID_3627_" d="m394.5 92.6c-1.3-10.4-2.5-19.4-3.8-29.8-20 2.5-44.7 12.3-71.9 27.9-20.3 11.6-41.9 26.4-63.9 43.8v38.7c23.3-19.9 45.3-36 65.3-48.5 31-19.3 56.9-29.9 74.3-32.1z" fill="#73ca7a"/><path id="XMLID_3625_" d="m447.1 119.3c-10.4-1.3-19.4-2.5-29.8-3.8-2.8 21.8-18.6 56.7-48.2 98.2-31.3 43.8-73.2 88-114.1 123v38.8c51.8-41.1 103.7-94.8 141.3-148.4 28.8-41.1 47.2-79.3 50.8-107.8z" fill="#73ca7a"/><path id="XMLID_3624_" d="m388.2 58.2c-17.6 17.6-17.6 46 0 63.6s46 17.6 63.6 0 17.6-46 0-63.6-46-17.6-63.6 0z" fill="#716dd4"/><circle id="XMLID_3623_" cx="420" cy="90" fill="#fff5f5" r="15"/><path id="XMLID_3622_" d="m119.3 62.9c-1.3 10.4-2.5 19.4-3.8 29.8 17.4 2.2 43.3 12.8 74.2 32.1 20 12.5 42 28.6 65.3 48.5l12.5-10.3-12.5-28.5c-22-17.4-43.6-32.2-63.9-43.8-27.1-15.5-51.9-25.3-71.8-27.8z" fill="#ffdc75"/><path id="XMLID_3618_" d="m417.4 394.5c10.4-1.3 19.4-2.5 29.8-3.8-3.6-28.5-22-66.8-50.8-107.8-37.7-53.8-89.8-107.7-141.3-148.4v38.7c40.2 34.3 82.5 78.7 114.1 123 29.6 41.6 45.4 76.5 48.2 98.3z" fill="#ffc649"/><path id="XMLID_3613_" d="m140.9 213.7c-29.7-41.5-45.5-76.5-48.2-98.2-10.4 1.3-19.4 2.5-29.8 3.8 3.6 28.5 22 66.8 50.8 107.8 37.2 53.1 89.1 107.1 141.3 148.4l12-11.5-12-27.3c-40.3-34.4-82.4-78.6-114.1-123z" fill="#ffdc75"/><path id="XMLID_3505_" d="m394.5 417.4c-17.4-2.2-43.3-12.8-74.2-32.1-20-12.5-42-28.6-65.3-48.5v38.7c22 17.4 43.6 32.2 63.9 43.8 27.1 15.5 51.9 25.3 71.9 27.9 1.3-10.5 2.4-19.4 3.7-29.8z" fill="#ffc649"/><path id="XMLID_3503_" d="m388.2 388.2c-17.6 17.6-17.6 46 0 63.6s46 17.6 63.6 0 17.6-46 0-63.6-46-17.6-63.6 0z" fill="#ff5c5c"/><path id="XMLID_3501_" d="m409.4 409.4c-2.7 2.7-4.4 6.5-4.4 10.6 0 8.3 6.7 15 15 15s15-6.7 15-15c0-4.1-1.7-7.9-4.4-10.6-5.9-5.9-15.3-5.9-21.2 0z" fill="#fff5f5"/><circle id="XMLID_3619_" cx="90" cy="90" fill="#ff8659" r="45"/><circle id="XMLID_3621_" cx="90" cy="90" fill="#fff5f5" r="15"/></g></svg>